<svg xmlns="http://www.w3.org/2000/svg" width="113.017" height="76.156" viewBox="0 0 113.017 76.156">
  <path id="Path_1" data-name="Path 1" d="M100.9,41.494c6.978-2.007,12.109-8.873,12.109-17.034,0-9.739-7.308-17.638-16.32-17.638l-40.209.031V33.061H39.127l-.382,12.026H53.67A21.436,21.436,0,0,1,34.562,57.2C22.659,57.2,13,47.073,13,34.575s9.654-22.628,21.564-22.628c5.5,0,13.91,1.971,17.689,5.331,0,0,1.317-11.807,1.317-11.867C50.137,2.978,42.869,0,34.562,0a34.569,34.569,0,0,0,0,69.138c.471,0,1.324-.038,2.029-.081.552-.029,1.014-.052,1.1-.067a34.087,34.087,0,0,0,7.126-1.4,33.727,33.727,0,0,0,3.515-1.3,34.541,34.541,0,0,0,3.221-1.6c.271-.146.541-.3.8-.462q1-.608,1.962-1.28A34.641,34.641,0,0,0,67.508,45.085H89.3c6.027,0,10.916,4.287,10.916,9.558S95.325,64.217,89.3,64.217l-31.321-.092-2.94,12.031H96.7a15.691,15.691,0,0,0,11.542-5.162,18.286,18.286,0,0,0,4.777-12.462C113.013,50.368,107.882,43.5,100.9,41.494ZM91.112,33.04H69.167V18.756h.867l21.086.014c5.219,0,9.447,3.192,9.447,7.133S96.34,33.04,91.112,33.04Z" fill="#fff"/>
</svg>
