<?xml version="1.0" standalone="no"?>
<!DOCTYPE svg PUBLIC "-//W3C//DTD SVG 20010904//EN"
 "http://www.w3.org/TR/2001/REC-SVG-20010904/DTD/svg10.dtd">
<svg version="1.0" xmlns="http://www.w3.org/2000/svg"
 width="700.000000pt" height="700.000000pt" viewBox="0 0 700.000000 700.000000"
 preserveAspectRatio="xMidYMid meet">
<metadata>
Created by potrace 1.11, written by Peter Selinger 2001-2013
</metadata>
<g transform="translate(0.000000,700.000000) scale(0.100000,-0.100000)"
fill="#000000" stroke="none">
<path d="M2087 5774 c-1 -1 -40 -5 -87 -8 -47 -4 -142 -18 -213 -32 -728 -142
-1329 -677 -1561 -1389 -24 -75 -55 -195 -61 -240 -2 -11 -8 -49 -13 -85 -34
-213 -33 -443 4 -655 135 -795 720 -1441 1494 -1649 124 -33 133 -35 285 -55
127 -17 361 -21 450 -7 22 3 63 8 90 12 28 3 84 12 125 20 41 9 86 17 100 20
86 16 341 114 449 172 217 116 471 319 623 499 102 121 212 290 282 438 55
115 54 114 80 188 13 37 26 71 29 74 12 11 1349 5 1420 -6 403 -67 636 -436
482 -768 -83 -180 -247 -304 -460 -348 -71 -14 -180 -16 -1040 -13 -528 1
-965 -1 -971 -5 -7 -4 -15 -24 -19 -44 -11 -50 -10 -48 -30 -123 -9 -36 -18
-72 -20 -80 -11 -52 -108 -446 -112 -452 -2 -5 -1 -9 4 -9 4 -1 580 -2 1278
-3 1318 -2 1333 -1 1473 39 127 37 283 130 387 231 125 121 207 252 263 419
46 137 57 207 56 360 -1 127 -6 170 -34 279 -85 332 -313 595 -625 720 -48 20
-56 26 -40 31 149 50 280 132 400 250 79 77 197 272 239 395 49 141 72 340 54
470 -4 30 -10 75 -14 100 -16 115 -90 295 -171 417 -51 78 -151 183 -232 243
-66 50 -217 130 -245 130 -8 0 -17 4 -20 9 -3 5 -23 12 -43 16 -43 8 -59 11
-125 23 -26 5 -603 9 -1282 9 l-1236 1 0 -783 0 -782 -510 0 c-281 0 -514 -4
-518 -7 -4 -4 -8 -22 -8 -39 -6 -141 -17 -482 -18 -567 l-1 -105 420 -2 c231
-1 430 -2 443 -2 l24 -1 -23 -37 c-13 -21 -28 -47 -33 -58 -44 -82 -185 -248
-286 -336 -103 -89 -299 -194 -446 -237 -87 -26 -122 -33 -234 -48 -43 -6
-193 -5 -255 1 -88 9 -219 41 -310 76 -73 28 -223 103 -235 118 -3 3 -23 18
-45 32 -90 59 -207 173 -286 280 -127 169 -203 336 -250 549 -30 137 -34 386
-8 533 44 250 165 502 325 677 54 59 75 79 153 148 65 57 208 141 334 197 22
9 91 30 155 47 101 26 138 31 272 33 85 2 182 -1 215 -5 33 -5 83 -11 110 -15
28 -3 70 -11 95 -16 278 -63 458 -131 594 -224 l65 -44 5 27 c3 15 8 52 11 82
3 30 7 71 10 90 3 19 7 60 10 90 3 30 8 75 11 100 5 53 12 117 19 180 3 25 7
65 10 90 l6 46 -79 47 c-136 83 -395 183 -542 211 -14 2 -46 9 -72 15 -110 25
-282 43 -441 45 -54 1 -99 1 -100 0z m3611 -1134 c281 -49 474 -262 429 -475
-33 -161 -169 -284 -377 -341 -60 -17 -122 -18 -778 -19 l-713 0 -1 419 c0
274 3 421 10 425 19 12 1358 4 1430 -9z"/>
</g>
</svg>
