<svg xmlns="http://www.w3.org/2000/svg" width="73.347" height="71.514" viewBox="0 0 73.347 71.514"><path d="M24.533,65.583c0,.3-.34.532-.769.532-.488.044-.828-.192-.828-.532,0-.3.34-.532.769-.532C24.148,65.007,24.533,65.243,24.533,65.583Zm-4.6-.665c-.1.3.192.636.636.725a.694.694,0,0,0,.917-.3c.089-.3-.192-.636-.636-.769a.759.759,0,0,0-.917.34Zm6.536-.251c-.429.1-.725.384-.68.725.044.3.429.488.872.384s.725-.384.68-.68S26.9,64.622,26.47,64.666ZM36.2,8C15.69,8,0,23.571,0,44.082A37.074,37.074,0,0,0,25.065,79.454c1.893.34,2.558-.828,2.558-1.789,0-.917-.044-5.974-.044-9.08,0,0-10.351,2.218-12.525-4.407,0,0-1.686-4.3-4.111-5.412,0,0-3.386-2.322.237-2.277A7.806,7.806,0,0,1,16.888,60.3c3.239,5.708,8.666,4.067,10.78,3.091a8.219,8.219,0,0,1,2.366-4.983c-8.266-.917-16.607-2.115-16.607-16.34,0-4.067,1.124-6.107,3.49-8.71A13.972,13.972,0,0,1,17.3,23.32c3.091-.961,10.2,3.993,10.2,3.993a34.935,34.935,0,0,1,18.573,0s7.113-4.969,10.2-3.993a13.965,13.965,0,0,1,.384,10.041c2.366,2.617,3.815,4.658,3.815,8.71,0,14.27-8.71,15.409-16.976,16.34,1.36,1.168,2.514,3.386,2.514,6.861,0,4.983-.044,11.15-.044,12.363,0,.961.68,2.129,2.558,1.789,14.788-4.91,24.814-18.943,24.814-35.343C73.347,23.571,56.711,8,36.2,8ZM14.374,59c-.192.148-.148.488.1.769.237.237.577.34.769.148.192-.148.148-.488-.1-.769C14.906,58.914,14.566,58.81,14.374,59Zm-1.6-1.2c-.1.192.044.429.34.577a.44.44,0,0,0,.636-.1c.1-.192-.044-.429-.34-.577C13.117,57.613,12.88,57.657,12.777,57.8Zm4.791,5.264c-.237.192-.148.636.192.917.34.34.769.384.961.148.192-.192.1-.636-.192-.917C18.2,62.877,17.76,62.833,17.568,63.069ZM15.882,60.9c-.237.148-.237.532,0,.872s.636.488.828.34a.674.674,0,0,0,0-.917c-.207-.34-.592-.488-.828-.3Z" transform="translate(0 -8)" fill="#fff"/></svg>