<svg xmlns="http://www.w3.org/2000/svg" width="73.35" height="71.51" viewBox="0 0 73.35 71.51"><path d="M68.111,32H5.223A5.2,5.2,0,0,0,0,37.156v61.2a5.2,5.2,0,0,0,5.223,5.156H68.111a5.21,5.21,0,0,0,5.239-5.156v-61.2A5.21,5.21,0,0,0,68.111,32ZM22.169,93.294H11.3V59.167H22.185V93.294ZM16.733,54.506a6.147,6.147,0,1,1,6.3-6.145A6.229,6.229,0,0,1,16.733,54.506ZM62.921,93.294H52.049v-16.6c0-3.959-.082-9.05-5.649-9.05-5.665,0-6.533,4.31-6.533,8.763V93.294H29V59.167H39.426v4.661h.147c1.457-2.682,5.01-5.507,10.3-5.507,11,0,13.049,7.071,13.049,16.265Z" transform="translate(0 -32)" fill="#fff"/></svg>