<?xml version="1.0" encoding="utf-8"?>
<!-- Generator: Adobe Illustrator 23.0.1, SVG Export Plug-In . SVG Version: 6.00 Build 0)  -->
<svg version="1.1" id="Layer_1" xmlns="http://www.w3.org/2000/svg" xmlns:xlink="http://www.w3.org/1999/xlink" x="0px" y="0px"
	 viewBox="0 0 1920 1080" style="enable-background:new 0 0 1920 1080;" xml:space="preserve">
<style type="text/css">
	.st0{fill:#FFC600;}
	.st1{fill:#FFFFFF;}
</style>
<g>
	<rect x="102" y="305" class="st0" width="1731.4" height="423"/>
	<g>
		<g>
			<path d="M407.5,757.4L333,648.8c29.7-12.7,52.6-33,64.6-61.3L187,587.8l0-0.7l-0.2,0l-0.1-86.7l65.5-0.1c3.4,0,6.7,0.1,9.8,0.4
				l140.6-0.2c-5-18.9-14.3-34.9-27.7-47.9c-24.3-24.7-62.5-39.1-117.7-39.1l-170.8,0.2L87,775l100.1-0.1L187,665.5l43.9,0
				l72.9,109.3l115.6-0.1L407.5,757.4z"/>
			<path d="M407.5,757.4l-7.3,17.3l19.1,0L407.5,757.4z"/>
			<path d="M650,410.6l-96.5,0.1l-37.8,89.8l172.3-0.2L650,410.6z M724.9,587.2l-245.9,0.3l-71.6,169.9l11.8,17.2l86.2-0.1
				l25.7-64.5l139.3-0.2l26.4,64.5l107.3-0.1L724.9,587.2z"/>
			<path d="M888.9,686.4l-0.1-99.4l-100.1,0.1l0.2,187.1l275-0.3l-0.1-87.7L888.9,686.4z M788.5,413l0.1,87.1l100.1-0.1l-0.1-87.1
				L788.5,413z"/>
			<path d="M1163.4,686.1l-0.1-99.4l-100.1,0.1l0.2,187.1l275-0.3l-0.1-87.7L1163.4,686.1z M1063,412.7l0.1,87.1l100.1-0.1
				l-0.1-87.1L1063,412.7z"/>
			<path d="M1462.9,412.3l-49.4,87.2l108.2-0.1l53.2-87.2L1462.9,412.3z M1305.7,586.6l31.6,51.9l0.2,135.2l100.6-0.1l-0.2-136.7
				l30.7-50.4L1305.7,586.6z M1313.8,412.5l-114,0.1l53,87.1l110.3-0.1L1313.8,412.5z"/>
		</g>
		<rect x="187.1" y="500.2" class="st1" width="1612.5" height="87.7"/>
		<polygon class="st1" points="1795.3,501.5 1795.3,588.1 1725.4,588.1 1725.4,658 1638.7,658 1638.7,588.1 1568.8,588.1 
			1568.8,501.5 1638.7,501.5 1638.7,431.5 1725.4,431.5 1725.4,501.5 		"/>
	</g>
</g>
</svg>
