<svg xmlns="http://www.w3.org/2000/svg" xmlns:xlink="http://www.w3.org/1999/xlink" viewBox="0 0 672.6 374.53"><defs><style>.cls-1{fill:url(#linear-gradient);}.cls-2{fill:#1e40e6;}</style><linearGradient id="linear-gradient" x1="361.3" y1="966.16" x2="361.3" y2="591.63" gradientTransform="matrix(1, 0, 0, -1, -25, 966.16)" gradientUnits="userSpaceOnUse"><stop offset="0" stop-color="#fff"/><stop offset="0.51" stop-color="#fdfdff"/><stop offset="0.7" stop-color="#f6f6ff"/><stop offset="0.83" stop-color="#ebebff"/><stop offset="0.93" stop-color="#dadaff"/><stop offset="0.99" stop-color="#ccf"/></linearGradient></defs><title>AQ-logo</title><g id="Layer_2" data-name="Layer 2"><g id="Layer_1-2" data-name="Layer 1"><path class="cls-1" d="M672.6,290.87a81.64,81.64,0,0,1-15.31,47.75c-1,1.41-2.06,2.7-3.09,4a77.71,77.71,0,0,1-5.28,5.92L647.51,350c-.78.77-1.55,1.41-2.32,2.18a47.7,47.7,0,0,1-3.86,3.22,87.36,87.36,0,0,1-9,6.44,25.15,25.15,0,0,1-2.57,1.41,85.1,85.1,0,0,1-9,4.51l-3.86,1.54a72.94,72.94,0,0,1-9,2.83,15.29,15.29,0,0,1-2.58.52,68.46,68.46,0,0,1-9,1.41l-3.86.39c-1.93.13-3.86.13-5.79.13H86c-2.31,0-4.76-.13-7.07-.26a17.22,17.22,0,0,1-2.58-.26,68.46,68.46,0,0,1-9-1.41c-1.29-.26-2.57-.65-3.86-.9a76.54,76.54,0,0,1-9-3,23,23,0,0,1-2.57-1,74.26,74.26,0,0,1-9-4.51,40.83,40.83,0,0,1-4-2.44A85.73,85.73,0,0,1,30,354.32c-.9-.77-1.68-1.41-2.58-2.19a90.85,90.85,0,0,1-9-9.52c-1.28-1.67-2.57-3.35-3.73-5a87,87,0,0,1-9.14-17,50,50,0,0,1-2.44-7.46A82.48,82.48,0,0,1,0,290.74q0-4.25.39-8.49c.12-1.16.25-2.19.38-3.35h0a55.33,55.33,0,0,1,1.29-6.69,80.18,80.18,0,0,1,14.16-30.38,111.17,111.17,0,0,1-6.95-38.74C9.27,140,61.91,88.81,126.77,88.81a119.93,119.93,0,0,1,56.12,13.9c17-39.39,57-67.06,103.6-67.06A113.52,113.52,0,0,1,344.15,51.1,190.59,190.59,0,0,1,474.53,0c103.86,0,188,82,188,183a178.24,178.24,0,0,1-8.75,55.21A83.6,83.6,0,0,1,672.6,290.87Z"/><path class="cls-2" d="M104.53,190.05c-9.94,1.31-14.91,2-24.84,3.45C78.6,200.11,78.07,203.41,77,210c-7.47,1.11-11.21,1.68-18.67,2.86q7.07-37,14.92-73.78c9.24-1.33,13.86-2,23.1-3.19q17.49,33.3,34.26,67c-7.66.91-11.49,1.38-19.15,2.37C108.72,199.17,107.33,196.13,104.53,190.05Zm-5.59-11.9c-3-6.43-4.51-9.64-7.56-16.06-1.88-4.24-2.83-6.36-4.73-10.6l-.23,0c-.59,4.54-.89,6.81-1.47,11.35-1.27,7.06-1.89,10.59-3.12,17.65C88.67,179.54,92.09,179.07,98.94,178.15Z"/><path class="cls-2" d="M136.16,140q-2.86-1.78-3.37-6.25t1.89-7c1.61-1.58,4.38-2.58,8.29-3s6.83,0,8.73,1.18,3,3.34,3.33,6.39-.36,5.26-2,6.83-4.35,2.54-8.23,3S138.07,141.15,136.16,140Zm24.26,59.63c-7.37.75-11,1.15-18.42,2q-3-26.62-6-53.24c7.58-.85,11.37-1.26,18.95-2Q157.7,172.94,160.42,199.59Z"/><path class="cls-2" d="M213.47,141.33c-.37,6.21-.54,9.32-.9,15.53a11.79,11.79,0,0,0-3.07-.9,15.78,15.78,0,0,0-4-.18,12.58,12.58,0,0,0-8.61,3.95q-3.27,3.54-2.76,9.63c.89,10.77,1.33,16.15,2.22,26.91-7.38.61-11.07.93-18.44,1.62l-4.95-53.34c6.69-.63,10-.92,16.74-1.48l1.75,11.46a18.5,18.5,0,0,1,5.52-9.85,17,17,0,0,1,10.41-4.09A13,13,0,0,1,213.47,141.33Z"/><path class="cls-2" d="M299.53,193.93c1.92,5.3,2.88,8,4.78,13.27a19.45,19.45,0,0,1-7.44,4,40.55,40.55,0,0,1-10.71,1.68c-7.09.24-12.64-1.22-16.66-4.44s-6.2-7.79-6.48-13.71c0-.86,0-1.29,0-2.14-9.11-.79-16.39-4.14-21.9-10.12s-8.61-14-9.24-24.24c-.47-7.55.56-14.15,3.15-19.78a29.26,29.26,0,0,1,11.86-13.23c5.32-3.18,11.77-5,19.3-5.28s14.08.88,19.63,3.59a29.38,29.38,0,0,1,12.9,12.16c3.06,5.38,4.66,11.86,4.85,19.43.25,10.36-2.18,18.74-7.21,25.17s-12.11,10.37-21.27,11.88a6.39,6.39,0,0,0,3.41,5.12,16.62,16.62,0,0,0,7.8,1.22C292.16,198.31,296.56,196.8,299.53,193.93ZM256.4,173.29q4.46,5.36,12.33,5c5.26-.23,9.18-2.23,11.79-6s3.8-9.32,3.55-16.53-1.83-12.62-4.76-16.23-7.1-5.31-12.49-5.08-9.4,2.29-12,6.14-3.76,9.38-3.39,16.59S253.44,169.72,256.4,173.29Z"/><path class="cls-2" d="M375.22,136.51q-.36,26.79-.7,53.57c-6.62-.09-9.93-.12-16.54-.14-.2-4-.3-6-.51-10-3.46,7.34-9.72,11-18.86,11.06-5.8,0-10.36-1.43-13.71-4.42s-5.08-7.73-5.19-14.23l-.57-35.78c7.61-.13,11.41-.17,19-.22q.09,15.6.19,31.18,0,5.25,1.91,7.39c1.25,1.42,3.15,2.12,5.71,2.12a9.47,9.47,0,0,0,7.35-3.06q2.75-3,2.77-9.26l.09-28.39C363.8,136.38,367.61,136.41,375.22,136.51Z"/><path class="cls-2" d="M448.61,181.69l-1.95,10.09a15.35,15.35,0,0,1-7.47,1.34c-7.83-.37-12.38-3.3-13.69-8.86-3.5,5.36-10,7.85-19.68,7.56-5.44-.16-9.58-1.4-12.43-3.76s-4.24-5.7-4.15-10.05a13.78,13.78,0,0,1,5.25-11c3.41-2.74,9-4.77,16.67-6,5-.78,7.55-1.16,12.58-1.91,0-.77.05-1.16.08-1.93a7.87,7.87,0,0,0-1.89-5.86,7.69,7.69,0,0,0-5.7-2.35,11.43,11.43,0,0,0-7,1.7q-2.72,1.84-3.63,6.21c-6.06-1.89-9.1-2.82-15.19-4.67a17.75,17.75,0,0,1,8.3-12c4.47-2.78,10.45-4.06,17.91-3.8,8.74.3,15.31,2.3,19.7,5.93s6.39,8.88,6.06,15.73l-.95,19.48c-.14,2.78,1.11,4.24,3.73,4.37A11.21,11.21,0,0,0,448.61,181.69Zm-28.69-3.28A6.39,6.39,0,0,0,423.2,173l.18-4.61-9,1.71a12.94,12.94,0,0,0-5.07,1.93,4.28,4.28,0,0,0-1.59,3.43,4.22,4.22,0,0,0,1.32,3.47,6,6,0,0,0,3.9,1.31A12,12,0,0,0,419.92,178.41Z"/><path class="cls-2" d="M479.2,175.81c-.17,2.43.08,4.16.74,5.21s1.93,1.64,3.83,1.77a18.25,18.25,0,0,0,5.65-.55c-.82,4.45-1.22,6.67-2,11.13a18.32,18.32,0,0,1-5.25,1.55,27,27,0,0,1-6.24.32q-8.68-.59-12.35-4.82t-3.16-13.12L463.93,117c7.69.46,11.54.7,19.23,1.23Z"/><path class="cls-2" d="M505.56,134.33c-1.64-1.53-2.35-3.79-2.11-6.78s1.3-5.22,3.18-6.47,4.79-1.7,8.7-1.37,6.71,1.28,8.35,2.83,2.32,3.85,2,6.91-1.35,5.09-3.23,6.32-4.76,1.67-8.64,1.34S507.2,135.85,505.56,134.33ZM518,197.49c-7.38-.67-11.07-1-18.45-1.57l4.29-53.4c7.59.61,11.39.93,19,1.62Q520.4,170.81,518,197.49Z"/><path class="cls-2" d="M575.13,200.52a23.69,23.69,0,0,1-7.23,2.11,33.81,33.81,0,0,1-8.52.15c-6.42-.73-11.18-2.6-14.3-5.66s-4.42-7.56-3.88-13.54c1-9.76,1.49-14.65,2.49-24.41-3.81-.39-5.72-.58-9.53-.95l1.25-12.9c3.84.37,5.76.56,9.6,1,.48-4.77.73-7.16,1.22-11.93,7.83-1.23,11.76-1.82,19.62-3-.75,6.78-1.13,10.16-1.89,16.93,6.68.75,10,1.14,16.7,1.95-.62,5.15-.93,7.72-1.56,12.87-6.63-.8-10-1.19-16.59-1.93l-2.4,21.4c-.53,4.76,1.6,7.4,6.39,7.95a13.6,13.6,0,0,0,8.13-1.41Z"/><path class="cls-2" d="M622.11,209.86a57.41,57.41,0,0,1-8.52,12.51,21.12,21.12,0,0,1-9.36,6,28.8,28.8,0,0,1-11.94.6c-6-.81-10.72-2.73-14-5.81,2.15-4.65,3.23-7,5.39-11.63a9.32,9.32,0,0,0,3.55,2.67,21,21,0,0,0,5.35,1.29,10.75,10.75,0,0,0,5.42-.41,8,8,0,0,0,3.67-3.56c.69-1.25,1-1.87,1.74-3.11-1.71-6.12-2.58-9.18-4.33-15.29q-5.5-21-11.25-42c8.32,1,12.48,1.58,20.8,2.71q2.22,15.71,4.31,31.42c.41,4.65.62,7,1,11.62,1.84-4.5,2.76-6.75,4.61-11.25q6.35-14.31,12.83-28.55c7.56,1.12,11.33,1.69,18.87,2.89Q636,184.81,622.11,209.86Z"/><path class="cls-2" d="M175.71,252.77c6.89,5.24,11.4,16.93,12.3,24.93s-.75,20.29-6,27.08-16.16,11.8-24.66,12.42q-15.18,2.08-30.31,4.49-5.54-34.92-11.06-69.84,15.83-2.52,31.71-4.7C156.3,245.4,168.64,247.38,175.71,252.77Zm-9.5,43.78q3.58-5.87,2.25-16.49c-.9-7.08-3-12.22-6.4-15.38s-8.19-4.33-14.41-3.47c-4.09.57-6.13.86-10.22,1.46l6.18,42.41c4-.58,6-.86,9.95-1.42C159.61,302.82,163.82,300.47,166.21,296.55Z"/><path class="cls-2" d="M213.66,248.33q-2.86-1.82-3.3-6.3t2-6.92c1.66-1.56,4.47-2.53,8.43-2.89s6.91.09,8.81,1.32,3,3.39,3.24,6.45-.46,5.25-2.11,6.79-4.44,2.48-8.36,2.83S215.56,249.55,213.66,248.33Zm23.38,60c-7.4.62-11.1,1-18.5,1.67l-5.16-53.32c7.66-.74,11.48-1.09,19.15-1.73Q234.78,281.65,237,308.35Z"/><path class="cls-2" d="M260.86,298.14c3.57-4.36,5.37-6.54,9-10.89,3.47,4.87,9,7.06,16.72,6.67a14.73,14.73,0,0,0,6-1.32c1.43-.74,2.12-1.69,2.07-2.83s-.84-1.84-2.38-2.51a32.81,32.81,0,0,0-7.89-1.81c-8.33-1.13-14.33-2.9-18-5.39a13.06,13.06,0,0,1-6-10.45,14.28,14.28,0,0,1,2.45-8.86,20.76,20.76,0,0,1,8.75-7.15,38.57,38.57,0,0,1,14.81-3.33q9.72-.5,16,1.8a23,23,0,0,1,10.24,7.18c-3.83,3.82-5.73,5.73-9.51,9.57a16.1,16.1,0,0,0-6.6-5.19,20.74,20.74,0,0,0-8.93-1.3,13.59,13.59,0,0,0-6.21,1.5c-1.46.87-2.15,1.87-2.08,3s.87,1.94,2.43,2.61a33.86,33.86,0,0,0,8.09,1.78c8.14,1,14.2,2.75,17.89,5.29a12.9,12.9,0,0,1,5.75,10.79c.18,5.21-1.92,9.51-6.24,12.93s-10.77,5.21-19.1,5.73C278.67,306.55,267.89,305.17,260.86,298.14Z"/><path class="cls-2" d="M391.24,255.78c4,4.93,5.83,11.76,5.66,20.47-.18,8.86-2.35,15.7-6.45,20.56s-9.61,7.25-16.58,7.21a18.43,18.43,0,0,1-10-2.7,17.93,17.93,0,0,1-6.53-7.37q.07,15.75.16,31.5c-7.31,0-11,.08-18.27.21q-.67-38-1.33-76.06c6.73-.12,10.1-.16,16.83-.21.26,4.55.38,6.82.64,11.36a19.43,19.43,0,0,1,18.79-12.44C381.56,248.35,387.27,250.86,391.24,255.78ZM375.12,287.1c1.81-2.34,2.75-6,2.79-10.91s-.84-8.58-2.65-10.94a9.26,9.26,0,0,0-7.77-3.57,9,9,0,0,0-7.55,3.54q-2.73,3.55-2.69,10.41c0,.43,0,.64,0,1.07q0,6.65,2.7,10.28a8.73,8.73,0,0,0,7.49,3.63A9.12,9.12,0,0,0,375.12,287.1Z"/><path class="cls-2" d="M441.88,286.29q-.18,3.65.84,5.19c.68,1,2,1.6,3.88,1.7a18.22,18.22,0,0,0,5.66-.65c-.74,4.46-1.11,6.7-1.84,11.16a18.11,18.11,0,0,1-5.23,1.65,27.16,27.16,0,0,1-6.24.44c-5.82-.28-10-1.79-12.48-4.58s-3.68-7.12-3.46-13.05q1.14-30.19,2.26-60.39c7.79.3,11.69.46,19.47.85Q443.32,257.46,441.88,286.29Z"/><path class="cls-2" d="M530.85,301.05c-1,4-1.51,6-2.51,10a15.56,15.56,0,0,1-7.57.93c-7.82-.81-12.23-4-13.25-9.59-3.79,5.17-10.48,7.31-20.13,6.53q-8.14-.64-12.26-4.37t-3.68-10.25a13.71,13.71,0,0,1,5.8-10.7c3.56-2.57,9.24-4.32,17.06-5.18,5.1-.52,7.65-.77,12.76-1.25.07-.77.1-1.15.17-1.92a7.34,7.34,0,0,0-7.22-8.6,11.5,11.5,0,0,0-7.09,1.34q-2.83,1.69-4,6c-6-2.2-9-3.28-15.07-5.42a17.75,17.75,0,0,1,9-11.55c4.64-2.55,10.74-3.53,18.25-2.88,8.79.76,15.32,3.11,19.55,7s6,9.22,5.26,16c-.81,7.75-1.21,11.63-2,19.39q-.43,4.15,3.51,4.57A11.28,11.28,0,0,0,530.85,301.05Zm-28.63-4.82A6.42,6.42,0,0,0,505.8,291c.17-1.83.25-2.75.42-4.59-3.65.49-5.48.73-9.12,1.24a12.72,12.72,0,0,0-5.19,1.66,4.82,4.82,0,0,0-.63,6.88,6,6,0,0,0,3.85,1.51A12.25,12.25,0,0,0,502.22,296.23Z"/><path class="cls-2" d="M584,318.69a57.5,57.5,0,0,1-8.5,12.53,21.29,21.29,0,0,1-9.34,6,28.85,28.85,0,0,1-11.93.65c-6.06-.77-10.74-2.66-14.08-5.71,2.11-4.67,3.17-7,5.31-11.67a9.3,9.3,0,0,0,3.57,2.64,21.25,21.25,0,0,0,5.37,1.26,10.75,10.75,0,0,0,5.43-.44,7.93,7.93,0,0,0,3.65-3.57l1.73-3.13c-1.75-6.11-2.63-9.16-4.43-15.27q-5.67-21-11.63-41.9c8.4,1,12.61,1.5,21,2.6q2.34,15.69,4.51,31.41c.44,4.65.66,7,1.09,11.62,1.82-4.51,2.74-6.76,4.58-11.27q6.31-14.32,12.81-28.58c7.62,1.12,11.43,1.7,19,2.9Q597.88,293.61,584,318.69Z"/></g></g></svg>