<?xml version="1.0" encoding="utf-8"?>
<!-- Generator: Adobe Illustrator 23.0.3, SVG Export Plug-In . SVG Version: 6.00 Build 0)  -->
<svg version="1.1" xmlns="http://www.w3.org/2000/svg" xmlns:xlink="http://www.w3.org/1999/xlink" x="0px" y="0px"
	 viewBox="0 0 1920 1080" style="enable-background:new 0 0 1920 1080;" xml:space="preserve">
<style type="text/css">
	.st0{display:none;}
	.st1{display:inline;fill:#FFCB00;}
	.st2{display:inline;fill:#FFFFFF;}
	.st3{fill:#FFFFFF;}
	.st4{fill:#111111;}
	.st5{display:inline;}
</style>
<g id="Layer_1" class="st0">
	<rect class="st1" width="1920" height="1083.4"/>
	<g>
		<path class="st2" d="M833.2,339.1c30.7-8.8,53.3-39.1,53.3-75.1c0-42.9-32.2-77.7-71.9-77.7l-171.6,0
			c-28.6-19.7-65.2-30.1-102.1-30.1c-84.1,0-152.3,68.2-152.3,152.3c0,84.1,68.2,152.3,152.3,152.3c67.9,0,125.5-44.5,145.1-105.9
			h96c26.6,0,48.1,18.9,48.1,42.1c0,23.3-21.5,42.1-48.1,42.1H655.3l-52.2,52.6h211.4c19.9,0,37.8-8.7,50.8-22.7
			c13-14.1,21.1-33.5,21.1-54.9C886.5,378.2,863.9,347.9,833.2,339.1z M790,301.8L593.4,302l-30.1,52.9h61.8
			c-15.9,31.7-47.6,53.3-84.1,53.3c-52.5,0-95-44.6-95-99.7c0-55,42.5-99.6,95-99.6c28.4,0,53.3,9.2,70.7,30L790,239
			c23,0,41.6,14.1,41.6,31.4C831.7,287.8,813,301.8,790,301.8z"/>
	</g>
	<g>
		<path class="st2" d="M1458.4,132.6c-47-47-109.5-72.9-176-72.9c-66.5,0-129,25.9-176,72.9c-47,47-72.9,109.5-72.9,176
			s25.9,129,72.9,176c47,47,109.5,72.9,176,72.9c66.5,0,129-25.9,176-72.9c47-47,72.9-109.5,72.9-176S1505.4,179.6,1458.4,132.6z
			 M1415.4,407.4h-103.2l-42.5,42.9H1442c0.6,0,1.3,0,1.9,0c-39.4,44.9-97.2,73.2-161.5,73.2c-118.5,0-214.9-96.4-214.9-214.9
			c0-118.5,96.4-214.9,214.9-214.9c83.9,0,156.7,48.3,192.1,118.6c-9.3-6.7-20.5-10.7-32.6-10.7l-139.8,0
			c-23.3-16-53.1-24.5-83.2-24.5c-68.5,0-124,55.5-124,124c0,68.5,55.5,124,124,124c55.3,0,102.2-36.2,118.2-86.3h78.2
			c21.6,0,39.2,15.4,39.2,34.3C1454.6,392.1,1437.1,407.4,1415.4,407.4z M1421.9,295.6l-160.2,0.1l-24.6,43.1h50.3
			c-12.9,25.8-38.8,43.4-68.5,43.4c-42.7,0-77.4-36.3-77.4-81.2c0-44.8,34.7-81.2,77.4-81.2c23.2,0,43.4,7.5,57.6,24.4l145.3,0.1
			c18.7,0,33.9,11.5,33.9,25.6C1455.9,284.1,1440.7,295.6,1421.9,295.6z M1492.4,354.8c-7.7-14-20.3-24.6-35.3-28.9
			c18-5.2,32.5-19.3,39.3-37.8c0.6,6.7,1,13.5,1,20.4C1497.4,324.4,1495.6,339.9,1492.4,354.8z"/>
	</g>
	<path class="st3" d="M1394.9,748.7c30.7-8.8,53.3-39.1,53.3-75c0-42.9-32.2-77.7-71.9-77.7l-171.6,0
		c-28.6-19.7-65.2-30.1-102.1-30.1c-84.1,0-152.3,68.2-152.3,152.3c0,84.1,68.2,152.3,152.3,152.3c3.7,0,12.8-0.5,13.8-0.6
		c10.8-1,21.3-3.1,31.4-6.2c2.7-0.7,12.4-4.3,15.4-5.7c6.1-2.6,12-5.7,17.7-9.1c3-1.8,5.8-3.7,8.7-5.6
		c27.1-18.9,47.8-46.5,58.1-78.7h96c26.6,0,48.1,18.9,48.1,42.1c0,23.3-21.5,42.2-48.1,42.2l-127.9-2.1c-13,9.6-44.3,24.5-65,33.6
		c-16.8,7.5-34.8,12.9-48.2,16.3c-7.1,1.8-12.9,3.1-16.6,3.9c-0.3,0-0.5,0.1-0.8,0.2c-1.5,0.3-2.6,0.5-3.2,0.6c-0.1,0-0.2,0-0.3,0.1
		h0l-0.1,0h294.6c19.9,0,37.8-8.7,50.8-22.7c13-14.1,21-33.5,21-54.9C1448.3,787.8,1425.6,757.5,1394.9,748.7z M1351.8,711.4
		l-196.6,0.1l-30.1,52.9h61.8c-15.9,31.7-47.6,53.3-84.2,53.3c-52.5,0-95-44.6-95-99.7s42.5-99.7,95-99.7c28.4,0,53.2,9.2,70.7,30
		l178.4,0.1c23,0,41.6,14.1,41.6,31.4C1393.4,697.4,1374.8,711.4,1351.8,711.4z"/>
	<path class="st4" d="M476.8,523.1c9.5-2.7,16.5-12.1,16.5-23.2c0-13.2-9.9-24-22.2-24l-54.7,0v35.7l-23.6,0l-0.5,16.3h20.3
		c-4.9,9.8-14.7,16.5-26,16.5c-16.2,0-29.3-13.8-29.3-30.8s13.1-30.8,29.3-30.8c7.5,0,18.9,2.7,24.1,7.2c0,0,1.8-16.1,1.8-16.1
		c-4.7-3.3-14.5-7.4-25.8-7.4c-26,0-47,21-47,47c0,26,21,47,47,47c0.6,0,1.8,0,2.8-0.1c0.8,0,1.4-0.1,1.5-0.1c3.3-0.3,6.6-1,9.7-1.9
		c0.8-0.2,3.8-1.3,4.8-1.8c1.5-0.7,3-1.4,4.4-2.2c0.4-0.2,0.7-0.4,1.1-0.6c0.9-0.6,1.8-1.1,2.7-1.7c8.4-5.8,14.8-14.3,17.9-24.3H461
		c8.2,0,14.9,5.8,14.9,13c0,7.2-6.7,13-14.9,13l-42.6-0.1l-4,16.4h56.7c6.1,0,11.7-2.7,15.7-7c4-4.3,6.5-10.3,6.5-17
		C493.3,535.2,486.3,525.8,476.8,523.1z M463.5,511.6l-22.3,0v0h-7.5v-19.4h1.2l28.7,0c7.1,0,12.8,4.3,12.8,9.7
		C476.4,507.3,470.6,511.6,463.5,511.6z"/>
	<g>
		<g class="st5">
			<path class="st3" d="M141.7,83.7h4.3v0L141.7,83.7z"/>
			<path class="st3" d="M198,118.4c0,6.6-2.5,12.6-6.5,17c-4,4.3-9.6,7-15.7,7H94.1c0,0-0.1-3.9,0-8.6c8.2-0.5,15.8-3,22.4-7.1
				l49.3-0.6c8.2,0,14.8-5.8,14.8-13c0-7.2-6.7-13-14.8-13h-29.7c-3.2,9.9-9.6,18.5-17.9,24.3c-0.9,0.6-1.8,1.2-2.7,1.7
				c-0.4,0.2-0.7,0.4-1.1,0.6c-1.4,0.8-2.9,1.5-4.4,2.2c-0.9,0.5-3.9,1.6-4.8,1.8c-3.1,1-6.4,1.6-9.7,1.9c-0.1,0-0.8,0.1-1.5,0.1
				c-1,0.1-2.1,0.1-2.8,0.1c-26,0-47-21-47-47c0-26,21-47,47-47c6.6,0,13.2,1.1,19.3,3.2c1.7,0.6,10.2,6,10.6,6.2
				c0,0.1-4.8,16.1-4.8,16.1h-3.2c-0.4-0.5-0.9-1-1.3-1.4c-0.2-0.2-0.4-0.4-0.5-0.5c0,0,0,0-0.1-0.1c-0.2-0.2-0.4-0.4-0.7-0.6
				C105.5,57,98.8,55,91.3,55C75.1,55,62,68.8,62,85.8s13.1,30.8,29.3,30.8c11.3,0,21.1-6.7,26-16.5H88.2l9.3-16.3l42.1,0h6.3v0
				l22.3,0c7.1,0,12.9-4.3,12.9-9.7s-5.8-9.7-12.8-9.7l-28.7,0h-4.7l-13,0l0.1-0.9l1.5-14.3l0.1-1.1l52.2,0
				c12.3,0,22.2,10.7,22.2,24c0,11.1-7,20.4-16.5,23.2C191,97.9,198,107.2,198,118.4z"/>
		</g>
		<g class="st5">
			<path class="st3" d="M365.5,95.2C375,92.5,382,83.1,382,72c0-13.2-9.9-24-22.2-24l-53,0c-8.8-6.1-20.1-9.3-31.5-9.3
				c-26,0-47,21-47,47s21,47,47,47c1.1,0,4-0.2,4.3-0.2c3.3-0.3,6.6-0.9,9.7-1.9c0.8-0.2,3.8-1.3,4.8-1.8c1.9-0.8,3.7-1.8,5.5-2.8
				c0.9-0.5,1.8-1.1,2.7-1.7c8.4-5.8,14.8-14.3,17.9-24.3h29.6c8.2,0,14.9,5.8,14.9,13c0,7.2-6.7,13-14.9,13l-44.4,0.9
				c-10.6,7.7-21.3,9.7-31,10.9l-6.3,4.5h91.8c6.1,0,11.7-2.7,15.7-7c4-4.3,6.5-10.3,6.5-17C382,107.2,375,97.9,365.5,95.2z
				 M352.2,83.7l-60.7,0l-9.3,16.3h19.1c-4.9,9.8-14.7,16.5-26,16.5c-16.2,0-29.3-13.8-29.3-30.8S259.1,55,275.3,55
				c8.8,0,16.4,2.8,21.8,9.3l55.1,0c7.1,0,12.9,4.3,12.9,9.7C365.1,79.3,359.3,83.7,352.2,83.7z"/>
		</g>
		<path class="st2" d="M382.5,250.5c0,6.6-2.5,12.6-6.5,17c-4,4.3-9.6,7-15.7,7H289c0,0,7.1-2.5,16.9-16.2c0,0,44.3-0.1,44.3-0.1
			c8.2,0,14.9-5.8,14.9-13c0-7.2-6.7-13-14.9-13h-29.6c-3.2,9.9-9.6,18.5-17.9,24.3c-0.9,0.6-1.8,1.2-2.7,1.7
			c-1.8,1.1-3.6,2-5.5,2.8c-0.9,0.5-3.9,1.6-4.8,1.8c-3.1,1-6.3,1.6-9.7,1.9c-0.3,0-3.1,0.2-4.3,0.2c-26,0-47-21-47-47
			c0-24.4,16.9-47,42.4-47c15.1,0,25.7,0.7,28.8,0.9c0.5,0,0.9,0.5,0.9,1l0,14.2c0,0.6-0.5,1.1-1.1,1c-2.5-0.3-9.4-0.8-23.5-0.7
			c-16.9,0.1-29.8,9.7-29.8,30.6c0,17,13.1,30.8,29.3,30.8c11.3,0,21.1-6.7,26-16.5l-29.1,0l-0.1-16.3l31.4,0h26.4v0l22.3,0
			c7.1,0,12.9-4.3,12.9-9.7s-5.8-9.7-12.8-9.7l-29.2,0l-1.5,14.9h-17.9l1.7-15l1.5-16.2h1.4l51.5,0c12.3,0,22.2,10.7,22.2,24
			c0,11.1-7,20.4-16.5,23.2c0,0,0,0,0,0C375.5,230,382.5,239.4,382.5,250.5z"/>
		<polygon class="st2" points="145.9,83.7 145.9,83.7 137.5,83.7 		"/>
		<g class="st5">
			<path class="st3" d="M186.4,227.5c9.5-2.7,16.5-12.1,16.5-23.2c0-13.2-9.9-24-22.2-24l-53,0c-8.8-6.1-20.1-9.3-31.5-9.3
				c-26,0-47,21-47,47s21,47,47,47c1.1,0,4-0.2,4.3-0.2c3.3-0.3,6.6-0.9,9.7-1.9c0.8-0.2,3.8-1.3,4.8-1.8c1.9-0.8,3.7-1.8,5.5-2.8
				c0.9-0.5,1.8-1.1,2.7-1.7c8.4-5.8,14.8-14.3,17.9-24.3h29.6c8.2,0,14.9,5.8,14.9,13c0,7.2-6.7,13-14.9,13l-44.4,0.9
				c-10.6,7.7-21.3,9.7-31,10.9l-6.3,4.5h91.8c6.1,0,11.7-2.7,15.7-7c4-4.3,6.5-10.3,6.5-17C202.9,239.6,195.9,230.2,186.4,227.5z
				 M173.1,216l-80.1,0l0.1,16.3h29.1c-4.9,9.8-14.7,16.5-26,16.5c-16.2,0-29.3-13.8-29.3-30.8s13.1-30.8,29.3-30.8
				c8.8,0,16.4,2.8,21.8,9.3l55.1,0c7.1,0,12.9,4.3,12.9,9.7C185.9,211.7,180.2,216,173.1,216z"/>
		</g>
		<polygon class="st2" points="139.6,63.4 139.6,64.3 138.7,75.5 138.7,75.5 138.2,81.3 120.2,81.3 121.9,64.2 122,63.4 122,63.4 
			134.4,63.4 		"/>
		<g class="st5">
			<path class="st3" d="M146.5,346.8h4.3v0L146.5,346.8z"/>
			<path class="st3" d="M202.9,381.5c0,6.6-2.5,12.6-6.5,17c-4,4.3-9.6,7-15.7,7h-61.8c0,0,5.8-11.6,12.4-15.6l39.3-0.6
				c8.2,0,14.8-5.8,14.8-13c0-7.2-6.7-13-14.8-13H141c-3.2,9.9-9.6,18.5-17.9,24.3c-0.9,0.6-1.8,1.2-2.7,1.7
				c-0.4,0.2-0.7,0.4-1.1,0.6c-1.4,0.8-2.9,1.5-4.4,2.2c-0.9,0.5-3.9,1.6-4.8,1.8c-3.1,1-6.4,1.6-9.7,1.9c-0.1,0-0.8,0.1-1.5,0.1
				c-1,0.1-2.1,0.1-2.8,0.1c-26,0-47-21-47-47c0-26,21-47,47-47c6.6,0,13.2,1.1,19.3,3.2c1.7,0.6,5.9,2.9,10.6,6.2
				c0,0.1-4.8,16.1-4.8,16.1H118c-0.4-0.5-0.9-1-1.3-1.4c-0.2-0.2-0.4-0.4-0.5-0.5c0,0,0,0-0.1-0.1c-0.2-0.2-0.4-0.4-0.7-0.6
				c-5.1-4.6-11.8-6.6-19.3-6.6c-16.2,0-29.3,13.8-29.3,30.8s13.1,30.8,29.3,30.8c11.3,0,21.1-6.7,26-16.5H93.1l9.3-16.3l42.1,0h6.3
				v0l22.3,0c7.1,0,12.9-4.3,12.9-9.7s-5.8-9.7-12.8-9.7l-28.7,0h-4.7l-13,0l0.1-0.9l1.5-14.3l0.1-1.1l52.2,0
				c12.3,0,22.2,10.7,22.2,24c0,11.1-7,20.4-16.5,23.2C195.9,361.1,202.9,370.4,202.9,381.5z"/>
		</g>
		<polygon class="st2" points="144.5,326.5 144.4,327.4 143.5,338.7 143.5,338.7 143,344.5 125.1,344.5 126.7,327.4 126.8,326.5 
			126.8,326.5 139.3,326.5 		"/>
		<g class="st5">
			<path class="st3" d="M145.9,483.2h4.3v0L145.9,483.2z"/>
		</g>
		<path class="st2" d="M184.2,478.2c9.5-2.7,16.5-12.1,16.5-23.2c0-13.2-9.9-24-22.2-24l-47.5,0c-4,0-7.2,3.2-7.2,7.2v28.5l-15.7,0
			c-4.4,0-8,3.5-8.2,7.9v0c-0.1,4.6,3.6,8.4,8.2,8.4H120c-4.9,9.8-14.7,16.5-26,16.5c-16.2,0-29.3-13.8-29.3-30.8S77.8,438,94,438
			c4.4,0,10.3,0.9,15.4,2.7c4.6,1.5,9.4-1.6,9.9-6.4l0-0.2c0.4-3.3-1.4-6.4-4.3-7.8c-5.3-2.4-12.7-4.6-21-4.6c-26,0-47,21-47,47
			c0,26,21,47,47,47c0.6,0,1.8,0,2.8-0.1c0.8,0,1.4-0.1,1.5-0.1c3.3-0.3,6.6-1,9.7-1.9c0.8-0.2,3.8-1.3,4.8-1.8
			c1.5-0.7,3-1.4,4.4-2.2c0.4-0.2,0.7-0.4,1.1-0.6c0.9-0.6,1.8-1.1,2.7-1.7c8.4-5.8,14.8-14.3,17.9-24.3h29.6
			c8.2,0,14.9,5.8,14.9,13c0,7.2-6.7,13-14.9,13L132,509c-4.5,0-8.2,3.6-8.2,8.2l0,0c0,4.5,3.7,8.2,8.2,8.2h46.5
			c6.1,0,11.7-2.7,15.7-7c4-4.3,6.5-10.3,6.5-17C200.7,490.2,193.7,480.9,184.2,478.2z M170.9,466.7l-22.3,0v0h-7.5v-19.4h1.2
			l28.7,0c7.1,0,12.8,4.3,12.8,9.7C183.8,462.3,178,466.7,170.9,466.7z"/>
	</g>
	<g>
		<path class="st2" d="M488-476.4c22.3-6.4,38.8-28.4,38.8-54.6c0-31.2-23.4-56.5-52.3-56.5l-116,0c-5.5,0-10.8-1.5-15.5-4.3
			c-19.7-11.6-43.6-17.6-67.6-17.6c-61.2,0-110.8,49.6-110.8,110.8c0,61.2,49.6,110.8,110.8,110.8c49.4,0,91.3-32.4,105.6-77.1h69.9
			c19.3,0,35,13.7,35,30.7c0,16.9-15.7,30.7-35,30.7h-66.9c-24.7,0-47.6,12.8-60.5,33.9l-2.7,4.4h153.8c14.5,0,27.5-6.3,37-16.5
			c9.5-10.2,15.3-24.3,15.3-40C526.8-447.9,510.3-470,488-476.4z M456.6-503.5l-118.4,0.1c-22.8,0-42.3,16.2-46.6,38.5v0h45
			c-11.6,23.1-34.6,38.8-61.2,38.8c-38.2,0-69.1-32.5-69.1-72.5c0-40.1,31-72.5,69.1-72.5c17.8,0,33.7,5,45.9,16
			c4.1,3.8,9.6,5.8,15.2,5.8l120.2,0.1c16.7,0,30.3,10.2,30.3,22.9C486.9-513.7,473.3-503.5,456.6-503.5z"/>
		<g class="st5">
			<g>
				<path class="st3" d="M2118.1-419c0,29.6-11.1,56.3-29,75.7c-17.9,19.4-42.7,31.3-70,31.3h-291.3l44.4-72.5h202
					c36.6,0,66.3-26,66.3-58.1c0-32-29.7-58-66.3-58h-301.3l14-72.9l298.3-0.2c31.7,0,57.4-19.4,57.4-43.3
					c0-23.9-25.7-43.3-57.4-43.3l-245.8-0.2l6.9-72.3l272.8,0c54.7,0,99,47.9,99,107c0,49.5-31.2,91.2-73.5,103.4
					C2086.9-510.2,2118.1-468.5,2118.1-419z"/>
			</g>
			<path class="st3" d="M1851.6-573.3h-79c0.2,2.9,0.3,5.9,0.3,8.9c0,75.8-58.6,137.3-130.9,137.3c-72.3,0-130.9-61.5-130.9-137.3
				c0-75.8,58.6-137.3,130.9-137.3c39.2,0,73.4,12.7,97.4,41.3l102.4-4.7c-33.8-70.5-116.4-109-199.8-109
				c-115.8,0-209.7,93.9-209.7,209.7c0,115.8,93.9,209.7,209.7,209.7c115.8,0,209.7-93.9,209.7-209.7
				C1851.8-567.4,1851.7-570.3,1851.6-573.3z"/>
		</g>
		<g class="st5">
			<path class="st3" d="M484.3-149.8c22.1-6.4,38.4-28.1,38.4-54c0-30.9-23.2-55.9-51.7-55.9l-123.5,0
				c-20.6-14.2-46.9-21.6-73.5-21.6c-60.5,0-109.6,49-109.6,109.6c0,60.5,49,109.6,109.6,109.6c48.9,0,90.3-32,104.4-76.2h69.1
				c19.1,0,34.6,13.6,34.6,30.3c0,16.8-15.5,30.3-34.6,30.3h-99.7L347.6-40H471c14.3,0,27.2-6.2,36.6-16.4
				c9.4-10.1,15.2-24.1,15.2-39.5C522.7-121.7,506.5-143.5,484.3-149.8z M453.3-176.6l-141.5,0.1l-0.2,38.1h22.9
				c-11.4,22.8-34.3,38.4-60.5,38.4c-37.8,0-68.4-32.1-68.4-71.7c0-39.6,30.6-71.7,68.4-71.7c20.5,0,38.3,6.6,50.9,21.6l128.4,0.1
				c16.5,0,30,10.1,30,22.6C483.3-186.7,469.9-176.6,453.3-176.6z"/>
		</g>
		<path class="st2" d="M1019.9-149.8c22.1-6.3,38.4-28.1,38.4-54c0-30.9-23.2-55.9-51.7-55.9l-123.5,0
			c-20.5-14.2-46.9-21.6-73.5-21.6c-61.4,0-111,50.5-109.5,112.3c1.4,58.2,48.9,105.6,107.1,106.8c49.9,1.1,92.5-31.3,106.8-76.2
			h69.1c19.1,0,34.6,13.6,34.6,30.3c0,16.8-15.5,30.3-34.6,30.3H877.6l-33.6,51.2l29-13.3h133.5c14.3,0,27.2-6.3,36.6-16.4
			s15.2-24.1,15.2-39.5C1058.3-121.7,1042-143.5,1019.9-149.8z M988.8-176.6l-141.5,0.1l-21.7,38.1h44.5
			c-11.4,22.8-34.3,38.4-60.5,38.4c-37.8,0-68.4-32.1-68.4-71.7c0-39.6,30.6-71.7,68.4-71.7c20.5,0,38.3,6.6,50.9,21.6l128.4,0.1
			c16.5,0,30,10.1,30,22.6S1005.4-176.6,988.8-176.6z"/>
		<rect x="1782.7" y="-732.7" class="st2" width="68.9" height="159.4"/>
	</g>
</g>
<g id="Layer_2">
	<path class="st3" d="M628.2,280.8c38.7-11.1,67.1-49.2,67.1-94.5c0-54-40.5-97.8-90.5-97.8l-222.9,0.1V234l-96.2,0l-2.1,66.6h82.8
		c-20,39.9-59.9,67.1-105.9,67.1c-66,0-119.6-56.1-119.6-125.4S194.3,117,260.4,117c30.5,0,77.1,10.9,98.1,29.6
		c0,0,7.3-65.5,7.3-65.8c-19-13.5-59.3-30-105.4-30c-105.8,0-191.6,85.8-191.6,191.7c0,105.9,85.8,191.7,191.6,191.7
		c2.6,0,7.3-0.2,11.3-0.4c3.1-0.2,5.6-0.3,6.1-0.4c13.6-1.2,26.9-3.9,39.5-7.8c3.4-0.9,15.6-5.4,19.4-7.2c6.1-2.6,12.1-5.6,17.9-8.9
		c1.5-0.8,3-1.7,4.4-2.6c3.7-2.2,7.3-4.6,10.9-7.1c34.2-23.8,60.2-58.5,73.1-99h120.9c33.4,0,60.5,23.8,60.5,53
		c0,29.3-27.1,53.1-60.5,53.1l-173.7-0.5L373.9,473h231c25,0,47.6-10.9,64-28.6c16.4-17.7,26.5-42.1,26.5-69.1
		C695.4,330,666.9,291.9,628.2,280.8z M573.9,233.9l-90.9,0v0h-30.8v-79.2h4.8l116.9,0.1c28.9,0,52.4,17.7,52.4,39.5
		C626.4,216.2,602.9,233.9,573.9,233.9z"/>
</g>
</svg>
