<svg xmlns="http://www.w3.org/2000/svg" width="1189.048" height="135.43" viewBox="0 0 1189.048 135.43"><g transform="translate(-534.864 -913.814)"><path d="M0,32V153.428H121.428V32Zm66.081,94.7c0,11.818-6.939,17.211-17.049,17.211-9.134,0-14.42-4.716-17.13-10.435l9.3-5.611c1.789,3.171,3.415,5.855,7.345,5.855,3.74,0,6.126-1.464,6.126-7.183V87.754H66.081V126.7Zm27,17.211c-10.6,0-17.455-5.041-20.789-11.655l9.3-5.367c2.439,3.984,5.638,6.939,11.248,6.939,4.716,0,7.752-2.358,7.752-5.638,0-3.9-3.09-5.285-8.321-7.589l-2.846-1.22c-8.24-3.5-13.688-7.914-13.688-17.211,0-8.565,6.532-15.07,16.7-15.07,7.264,0,12.468,2.521,16.208,9.134l-8.89,5.692c-1.952-3.5-4.066-4.879-7.345-4.879-3.334,0-5.448,2.114-5.448,4.879,0,3.415,2.114,4.8,7.02,6.939l2.846,1.22c9.7,4.147,15.151,8.4,15.151,17.943,0,10.245-8.077,15.883-18.892,15.883Z" transform="translate(534.864 888.784)" fill="#fff"/><path d="M61.388,139.48a10.738,10.738,0,0,1-5.272-1.4l-16.769-9.809c-2.5-1.4-1.277-1.881-.462-2.15a33.213,33.213,0,0,0,7.583-3.413,1.238,1.238,0,0,1,1.25.107L60.6,130.37a1.589,1.589,0,0,0,1.549,0l50.2-28.647a1.587,1.587,0,0,0,.761-1.344V43.084a1.6,1.6,0,0,0-.788-1.371l-50.17-28.62a1.589,1.589,0,0,0-1.549,0L10.457,41.74a1.565,1.565,0,0,0-.788,1.371v57.268a1.481,1.481,0,0,0,.788,1.317l13.752,7.847c7.474,3.682,12.04-.645,12.04-5.025V47.975a1.431,1.431,0,0,1,1.468-1.424h6.36a1.448,1.448,0,0,1,1.468,1.424v56.569c0,9.836-5.436,15.479-14.866,15.479-2.908,0-5.191,0-11.551-3.117l-13.154-7.5A10.429,10.429,0,0,1,.7,100.352V43.084a10.461,10.461,0,0,1,5.272-9.056L56.115,5.38a11.114,11.114,0,0,1,10.545,0l50.2,28.674a10.429,10.429,0,0,1,5.272,9.056v57.268a10.494,10.494,0,0,1-5.272,9.056l-50.2,28.647A10.662,10.662,0,0,1,61.388,139.48ZM101.91,83.018c0-10.723-7.338-13.571-22.748-15.587-15.6-2.042-17.176-3.09-17.176-6.692,0-2.983,1.332-6.96,12.882-6.96,10.3,0,14.105,2.2,15.682,9.083a1.451,1.451,0,0,0,1.413,1.129h6.523a1.426,1.426,0,0,0,1.06-.457,1.485,1.485,0,0,0,.38-1.1c-1.006-11.851-8.969-17.36-25.058-17.36-14.323,0-22.856,5.966-22.856,15.99,0,10.857,8.507,13.867,22.231,15.211,16.443,1.586,17.72,3.977,17.72,7.175,0,5.536-4.511,7.9-15.084,7.9-13.29,0-16.2-3.305-17.176-9.836a1.434,1.434,0,0,0-1.44-1.209h-6.5a1.424,1.424,0,0,0-1.44,1.424c0,8.358,4.593,18.328,26.58,18.328,15.872-.027,25-6.235,25-17.038Z" transform="translate(1013.621 909.764)" fill="#fff"/><path d="M0,60.715V121.43H121.43V0H0ZM74.471,58.58v5.455H58.818v49.805H46.011V64.035H30.358V53.126H74.471ZM105.3,53.79a43.59,43.59,0,0,1,4.886,1.186l1.281.522v5.929a48.815,48.815,0,0,1-.19,5.929,24.335,24.335,0,0,1-2.229-1.138c-4.269-2.419-11.1-3.32-15.274-2.087a9.043,9.043,0,0,0-3.225,1.945,3.877,3.877,0,0,0-1.376,3.51c0,1.9.237,2.419,1.8,3.89a49.776,49.776,0,0,0,8.3,4.933c7.589,3.747,11.431,6.925,13.187,10.862,1.565,3.51,1.613,10.91.095,14.23a17.312,17.312,0,0,1-7.637,7.779c-6.546,3.083-17.218,3.368-25.567.617l-2.988-1V97.713l2.372,1.708a21.892,21.892,0,0,0,11.242,3.89c4.174.285,7.257-.474,9.155-2.277a3.751,3.751,0,0,0,1.423-3.51c0-3.463-1.992-5.265-10.151-9.25-7.21-3.558-9.487-5.17-11.621-8.3-4.743-6.878-3.32-17.408,3.036-22.2C87.23,53.647,96.2,52.13,105.3,53.79Z" transform="translate(686.443 920.695)" fill="#fff"/><path d="M69.01,107.807C68.941,107.959,68.873,108.08,69.01,107.807ZM125.966,85.8a27.641,27.641,0,0,0-13.26,3.415c-1.349-3.01-2.743-5.641-2.972-7.614a22.449,22.449,0,0,1-.251-6.4,58.389,58.389,0,0,1,1.738-6.88c-.023-.278-.32-1.67-3.269-1.695s-5.487.632-5.782,1.492a33.7,33.7,0,0,0-1.212,4.831c-.526,2.96-5.9,13.533-8.937,19.048a20.9,20.9,0,0,1-2.035-5.565,22.449,22.449,0,0,1-.251-6.4,58.386,58.386,0,0,1,1.738-6.88c-.023-.278-.32-1.67-3.267-1.695s-5.487.632-5.784,1.492-.617,2.884-1.212,4.832-7.748,19.554-9.62,24.132c-.96,2.327-1.783,4.2-2.378,5.464-.091.2-.16.329-.206.43.069-.126.114-.253.114-.2-.5,1.088-.8,1.695-.8,1.695v.025c-.389.809-.823,1.543-1.029,1.543-.137,0-.434-2.125.069-5.034,1.075-6.122,3.612-15.633,3.589-15.962a2.32,2.32,0,0,0-1.669-2.707,2.523,2.523,0,0,0-3.018.557c-.183,0-.32.506-.32.506S68.251,77.5,61.509,77.5c-4.207,0-10.059,5.11-12.935,9.739-1.806,1.088-5.716,3.44-9.831,5.945-1.577.961-3.2,1.948-4.732,2.884-.114-.126-.206-.253-.32-.379C25.508,86.027,10.4,79.2,11.041,66.221c.229-4.73,1.715-17.151,29.051-32.227,22.4-12.344,40.317-8.955,43.4-1.417,4.435,10.751-9.577,30.76-32.844,33.643-8.868,1.088-13.53-2.707-14.7-4.123-1.212-1.492-1.395-1.568-1.852-1.29-.754.455-.274,1.771,0,2.555.686,2,3.544,5.54,8.411,7.311,4.275,1.543,14.673,2.4,27.245-2.985,14.124-6.02,25.119-22.792,21.9-36.831-3.283-14.267-24.664-18.947-44.881-11C34.726,24.584,21.7,32.021,12.328,41.709,1.2,53.244-.585,63.286.147,67.485c2.6,14.9,21.163,24.613,28.591,31.8-.366.228-.709.43-1.029.632-3.724,2.049-17.874,10.245-21.415,18.9-4,9.815.663,16.847,3.724,17.808,9.554,2.934,19.337-2.353,24.593-11.029s4.618-20.009,2.195-25.169c-.023-.076-.069-.126-.091-.2.96-.632,1.943-1.265,2.926-1.9,1.9-1.24,3.747-2.378,5.37-3.364a42.963,42.963,0,0,0-1.92,10.776c-.412,5.565,1.669,12.774,4.367,15.608a4.493,4.493,0,0,0,3.518,1.265c3.155,0,4.572-2.884,6.148-6.324,1.943-4.2,3.658-9.081,3.658-9.081s-2.149,13.2,3.727,13.2c2.147,0,4.3-3.061,5.258-4.629v.025s.046-.1.16-.3c.229-.379.343-.607.343-.607v-.076c.869-1.644,2.766-5.413,5.622-11.636,3.7-8.044,7.245-18.087,7.245-18.087a55.471,55.471,0,0,0,1.417,6.526,64.542,64.542,0,0,0,3.064,7.589c-.869,1.315-1.395,2.074-1.395,2.074a.082.082,0,0,0,.023.051c-.686,1.012-1.463,2.1-2.263,3.162-2.924,3.845-6.4,8.246-6.859,9.511-.549,1.492-.412,2.605.64,3.466a5.1,5.1,0,0,0,3.587.632,14.62,14.62,0,0,0,5.373-1.366,18.243,18.243,0,0,0,4.616-2.681,11.866,11.866,0,0,0,4.435-10.068,22.753,22.753,0,0,0-1.669-7.133c.251-.4.526-.835.777-1.265a138.916,138.916,0,0,0,8.022-15.334,55.473,55.473,0,0,0,1.417,6.526,47.154,47.154,0,0,0,2.6,6.5,27.731,27.731,0,0,0-7.794,11.155c-1.692,5.388-.366,7.816,2.126,8.373a7.048,7.048,0,0,0,3.909-.885,17.6,17.6,0,0,0,4.936-2.808c2.858-2.327,5.622-5.59,5.439-10.017a20.512,20.512,0,0,0-1.235-5.919,25.443,25.443,0,0,1,14.2-1.821c12.73,1.644,15.222,10.447,14.742,14.115A9.307,9.307,0,0,1,139.2,111.8c-.892.607-1.166.835-1.1,1.29.114.658.526.632,1.28.481a10.711,10.711,0,0,0,6.925-9.789c.366-8.6-7.108-18.061-20.347-17.985Zm-98.12,36.6c-4.2,5.084-10.1,7.007-12.638,5.388-2.721-1.75-1.646-9.233,3.541-14.651a68.7,68.7,0,0,1,9.92-8.2c.617-.4,1.509-1.012,2.606-1.745.183-.126.274-.177.274-.177.206-.152.434-.278.663-.43A21.734,21.734,0,0,1,27.847,122.4Zm30.718-23.12c-1.463,3.971-4.547,14.09-6.422,13.559-1.6-.455-2.583-8.171-.32-15.759a36.112,36.112,0,0,1,5.007-10.144c2.307-2.858,4.844-3.769,5.439-2.631.8,1.492-2.789,12.5-3.7,14.975Zm25.377,13.407c-.617.354-1.189.582-1.463.4-.206-.126.251-.607.251-.607s3.178-3.769,4.435-5.489c.732-1.012,1.577-2.2,2.49-3.516,0,.126.023.253.023.4-.03,4.528-3.96,7.589-5.743,8.8Zm19.565-4.933c-.457-.354-.389-1.543,1.143-5.236a19.6,19.6,0,0,1,4.344-6.2,10.034,10.034,0,0,1,.434,2.732,8.77,8.77,0,0,1-5.919,8.7Z" transform="translate(838.152 907.614)" fill="#fff"/><path d="M117.2,72.7q-2.27-.757-4.54-1.429c.252-1.037.476-2.074.7-3.111,3.447-16.7,1.177-30.127-6.474-34.555-7.371-4.232-19.394.168-31.557,10.762-1.205,1.037-2.382,2.13-3.5,3.223-.757-.729-1.541-1.457-2.326-2.158C56.752,34.111,43.972,29.347,36.321,33.8c-7.343,4.26-9.529,16.9-6.446,32.706.308,1.569.645,3.111,1.037,4.68-1.794.5-3.559,1.065-5.213,1.654C10.734,78.027,0,86.21,0,94.674c0,8.744,11.434,17.516,26.989,22.841,1.261.42,2.522.841,3.811,1.205-.42,1.682-.785,3.335-1.121,5.045-2.943,15.554-.645,27.885,6.7,32.117,7.567,4.372,20.29-.112,32.678-10.958.981-.869,1.962-1.766,2.943-2.718,1.233,1.205,2.522,2.354,3.811,3.475,11.995,10.313,23.85,14.489,31.164,10.257,7.567-4.372,10.033-17.628,6.838-33.771q-.378-1.85-.841-3.783c.9-.252,1.766-.532,2.634-.813,16.171-5.353,27.885-14.013,27.885-22.9C143.49,86.182,132.448,77.943,117.2,72.7ZM79.284,48.908c10.425-9.08,20.15-12.639,24.578-10.089,4.736,2.718,6.558,13.7,3.587,28.138-.2.953-.392,1.878-.645,2.8a143.47,143.47,0,0,0-18.861-2.971A141.6,141.6,0,0,0,76.005,51.907C77.1,50.87,78.163,49.889,79.284,48.908ZM46.859,109.219c1.429,2.438,2.887,4.876,4.428,7.259a126.9,126.9,0,0,1-13-2.1A130.918,130.918,0,0,1,42.851,101.9c1.289,2.466,2.606,4.9,4.008,7.315ZM38.367,75.5c4.036-.9,8.324-1.625,12.78-2.186-1.485,2.326-2.943,4.708-4.316,7.118-1.373,2.382-2.718,4.82-3.98,7.287C41.085,83.548,39.6,79.456,38.367,75.5Zm7.679,19.31c1.85-3.868,3.868-7.651,6-11.378s4.428-7.343,6.838-10.9c4.2-.308,8.492-.476,12.864-.476s8.688.168,12.864.476q3.573,5.3,6.81,10.846T97.5,94.7q-2.817,5.8-6.054,11.434c-2.13,3.727-4.4,7.343-6.782,10.93-4.176.308-8.52.448-12.92.448s-8.66-.14-12.78-.392q-3.657-5.339-6.894-10.93c-2.158-3.727-4.148-7.511-6.025-11.378ZM96.66,109.163c1.429-2.466,2.775-4.961,4.092-7.483a130.1,130.1,0,0,1,4.736,12.415,123.1,123.1,0,0,1-13.172,2.242C93.829,113.984,95.259,111.573,96.66,109.163ZM100.7,87.724c-1.317-2.466-2.662-4.932-4.064-7.343q-2.06-3.573-4.288-7.062a128.969,128.969,0,0,1,12.864,2.242A124.027,124.027,0,0,1,100.7,87.724ZM71.8,56.195a123.067,123.067,0,0,1,8.3,10.033c-5.549-.252-11.126-.252-16.675,0C66.168,62.613,69,59.25,71.8,56.195Zm-32.51-17.18C44,36.269,54.454,40.192,65.468,49.945c.7.617,1.4,1.289,2.13,1.962A142.383,142.383,0,0,0,55.575,66.789,147.732,147.732,0,0,0,36.741,69.7c-.364-1.429-.673-2.887-.981-4.344-2.634-13.564-.9-23.794,3.531-26.344Zm-6.866,73.875c-1.177-.336-2.326-.7-3.475-1.093-5.969-1.878-12.752-4.848-17.656-8.744a12.575,12.575,0,0,1-5.269-8.38c0-5.129,8.856-11.687,21.636-16.143,1.6-.561,3.223-1.065,4.848-1.541a149.023,149.023,0,0,0,6.866,17.824A153.194,153.194,0,0,0,32.425,112.891ZM65.1,140.355A51.3,51.3,0,0,1,49.3,150.248a12.4,12.4,0,0,1-9.893.364c-4.456-2.578-6.306-12.471-3.783-25.783.308-1.569.645-3.139,1.037-4.68A140.2,140.2,0,0,0,55.687,122.9a147.9,147.9,0,0,0,12.107,14.966c-.9.869-1.794,1.71-2.69,2.494Zm6.866-6.81c-2.859-3.083-5.717-6.5-8.492-10.173,2.69.112,5.465.168,8.268.168,2.887,0,5.717-.056,8.52-.2A120.863,120.863,0,0,1,71.969,133.545Zm36.629,8.408a12.455,12.455,0,0,1-4.624,8.772c-4.456,2.578-13.957-.785-24.214-9.585-1.177-1.009-2.354-2.1-3.559-3.223A138.638,138.638,0,0,0,88.028,122.9a138.157,138.157,0,0,0,19.113-2.943c.28,1.149.532,2.3.757,3.419a51.089,51.089,0,0,1,.7,18.581Zm5.1-30.127c-.785.252-1.569.5-2.382.729a142.369,142.369,0,0,0-7.146-17.88,141.658,141.658,0,0,0,6.866-17.628c1.457.42,2.859.869,4.2,1.317,13.06,4.484,22.224,11.154,22.224,16.255C137.465,100.111,127.684,107.2,113.7,111.826Zm-41.954-4.2A12.836,12.836,0,1,0,58.91,94.786,12.834,12.834,0,0,0,71.745,107.622Z" transform="translate(1171.642 889.352)" fill="#fff"/><path d="M63.968,98.736H85.506L74.737,72.844ZM74.737,32,16,53.03l8.989,77.93,49.748,27.672,49.748-27.672,8.989-77.93Zm36.8,96.613H97.8L90.4,110.127H59.134l-7.406,18.486H37.963L74.737,45.992Z" transform="translate(1325.062 888)" fill="#fff"/><path d="M0,32,9.723,141.005l43.766,14.376,43.766-14.376L106.977,32ZM87.225,54.032,85.888,67.059,53.767,80.637l-.084.028H84.746L81.18,121.038l-27.357,7.9L26.3,120.9l-1.783-20.352H38.138L39.03,111.1l14.654,3.663,15.239-4.241,1.031-16.965-46.329-.138v-.028l-.056.028-1-12.751L53.8,67.8l1.811-.744H21.368L19.752,54.032Z" transform="translate(1484.422 891.619)" fill="#fff"/><path d="M0,32,9.723,141,53.351,155.38,97.257,141,106.98,32ZM85.863,67.224H34.657l1.142,13.6H84.72L80.931,121.7l-27.274,7.436v.083h-.306l-27.5-7.518-1.672-20.875H37.471l.975,10.493,14.9,3.993,14.96-3.993,1.672-17.13h-46.5l-3.566-40.1H87.088Z" transform="translate(1616.932 893.619)" fill="#fff"/></g></svg>